<mxfile host="app.diagrams.net" modified="2023-09-09T14:06:33.235Z" agent="Mozilla/5.0 (Windows NT 10.0; Win64; x64) AppleWebKit/537.36 (KHTML, like Gecko) Chrome/116.0.0.0 Safari/537.36" etag="t1pttB9gGo3bhDztyPvh" version="21.7.4" type="github">
  <diagram name="第 1 页" id="xPcf1KZLelZYzwjsgRb9">
    <mxGraphModel dx="1877" dy="542" grid="1" gridSize="10" guides="1" tooltips="1" connect="1" arrows="1" fold="1" page="1" pageScale="1" pageWidth="827" pageHeight="1169" math="0" shadow="0">
      <root>
        <mxCell id="0" />
        <mxCell id="1" parent="0" />
        <mxCell id="NoyNG44aX1ynUaIa1Utx-39" value="" style="group" vertex="1" connectable="0" parent="1">
          <mxGeometry x="400" y="370.00466094067264" width="344.3553390593274" height="345.3553390593274" as="geometry" />
        </mxCell>
        <mxCell id="NoyNG44aX1ynUaIa1Utx-32" value="" style="endArrow=none;dashed=1;html=1;rounded=0;" edge="1" parent="NoyNG44aX1ynUaIa1Utx-39">
          <mxGeometry width="50" height="50" relative="1" as="geometry">
            <mxPoint x="130" y="270.3553390593274" as="sourcePoint" />
            <mxPoint x="340" y="60.35533905932738" as="targetPoint" />
          </mxGeometry>
        </mxCell>
        <mxCell id="NoyNG44aX1ynUaIa1Utx-1" value="" style="endArrow=classic;html=1;rounded=0;strokeWidth=2;" edge="1" parent="NoyNG44aX1ynUaIa1Utx-39">
          <mxGeometry width="50" height="50" relative="1" as="geometry">
            <mxPoint x="60" y="270.3553390593274" as="sourcePoint" />
            <mxPoint x="60" y="70.35533905932738" as="targetPoint" />
          </mxGeometry>
        </mxCell>
        <mxCell id="NoyNG44aX1ynUaIa1Utx-2" value="" style="endArrow=classic;html=1;rounded=0;strokeWidth=2;" edge="1" parent="NoyNG44aX1ynUaIa1Utx-39">
          <mxGeometry width="50" height="50" relative="1" as="geometry">
            <mxPoint x="60" y="270.3553390593274" as="sourcePoint" />
            <mxPoint x="260" y="270.3553390593274" as="targetPoint" />
          </mxGeometry>
        </mxCell>
        <mxCell id="NoyNG44aX1ynUaIa1Utx-3" value="" style="ellipse;whiteSpace=wrap;html=1;aspect=fixed;fillColor=#e51400;fontColor=#ffffff;strokeColor=#B20000;" vertex="1" parent="NoyNG44aX1ynUaIa1Utx-39">
          <mxGeometry x="90" y="130.35533905932738" width="10" height="10" as="geometry" />
        </mxCell>
        <mxCell id="NoyNG44aX1ynUaIa1Utx-4" value="" style="ellipse;whiteSpace=wrap;html=1;aspect=fixed;fillColor=#e51400;fontColor=#ffffff;strokeColor=#B20000;" vertex="1" parent="NoyNG44aX1ynUaIa1Utx-39">
          <mxGeometry x="100" y="140.35533905932738" width="10" height="10" as="geometry" />
        </mxCell>
        <mxCell id="NoyNG44aX1ynUaIa1Utx-5" value="" style="ellipse;whiteSpace=wrap;html=1;aspect=fixed;fillColor=#e51400;fontColor=#ffffff;strokeColor=#B20000;" vertex="1" parent="NoyNG44aX1ynUaIa1Utx-39">
          <mxGeometry x="80" y="160.35533905932738" width="10" height="10" as="geometry" />
        </mxCell>
        <mxCell id="NoyNG44aX1ynUaIa1Utx-6" value="" style="ellipse;whiteSpace=wrap;html=1;aspect=fixed;fillColor=#e51400;fontColor=#ffffff;strokeColor=#B20000;" vertex="1" parent="NoyNG44aX1ynUaIa1Utx-39">
          <mxGeometry x="100" y="110.35533905932738" width="10" height="10" as="geometry" />
        </mxCell>
        <mxCell id="NoyNG44aX1ynUaIa1Utx-7" value="" style="ellipse;whiteSpace=wrap;html=1;aspect=fixed;fillColor=#e51400;fontColor=#ffffff;strokeColor=#B20000;" vertex="1" parent="NoyNG44aX1ynUaIa1Utx-39">
          <mxGeometry x="120" y="130.35533905932738" width="10" height="10" as="geometry" />
        </mxCell>
        <mxCell id="NoyNG44aX1ynUaIa1Utx-8" value="" style="ellipse;whiteSpace=wrap;html=1;aspect=fixed;fillColor=#e51400;fontColor=#ffffff;strokeColor=#B20000;" vertex="1" parent="NoyNG44aX1ynUaIa1Utx-39">
          <mxGeometry x="120" y="100.35533905932738" width="10" height="10" as="geometry" />
        </mxCell>
        <mxCell id="NoyNG44aX1ynUaIa1Utx-10" value="" style="ellipse;whiteSpace=wrap;html=1;aspect=fixed;fillColor=#e51400;fontColor=#ffffff;strokeColor=#B20000;" vertex="1" parent="NoyNG44aX1ynUaIa1Utx-39">
          <mxGeometry x="150" y="70.35533905932738" width="10" height="10" as="geometry" />
        </mxCell>
        <mxCell id="NoyNG44aX1ynUaIa1Utx-11" value="" style="ellipse;whiteSpace=wrap;html=1;aspect=fixed;fillColor=#e51400;fontColor=#ffffff;strokeColor=#B20000;" vertex="1" parent="NoyNG44aX1ynUaIa1Utx-39">
          <mxGeometry x="170" y="90.35533905932738" width="10" height="10" as="geometry" />
        </mxCell>
        <mxCell id="NoyNG44aX1ynUaIa1Utx-12" value="" style="ellipse;whiteSpace=wrap;html=1;aspect=fixed;fillColor=#e51400;fontColor=#ffffff;strokeColor=#B20000;" vertex="1" parent="NoyNG44aX1ynUaIa1Utx-39">
          <mxGeometry x="140" y="120.35533905932738" width="10" height="10" as="geometry" />
        </mxCell>
        <mxCell id="NoyNG44aX1ynUaIa1Utx-13" value="" style="ellipse;whiteSpace=wrap;html=1;aspect=fixed;fillColor=#e51400;fontColor=#ffffff;strokeColor=#B20000;" vertex="1" parent="NoyNG44aX1ynUaIa1Utx-39">
          <mxGeometry x="110" y="70.35533905932738" width="10" height="10" as="geometry" />
        </mxCell>
        <mxCell id="NoyNG44aX1ynUaIa1Utx-14" value="" style="ellipse;whiteSpace=wrap;html=1;aspect=fixed;fillColor=#e51400;fontColor=#ffffff;strokeColor=#B20000;" vertex="1" parent="NoyNG44aX1ynUaIa1Utx-39">
          <mxGeometry x="160" y="120.35533905932738" width="10" height="10" as="geometry" />
        </mxCell>
        <mxCell id="NoyNG44aX1ynUaIa1Utx-16" value="" style="ellipse;whiteSpace=wrap;html=1;aspect=fixed;fillColor=#0050ef;fontColor=#ffffff;strokeColor=#001DBC;" vertex="1" parent="NoyNG44aX1ynUaIa1Utx-39">
          <mxGeometry x="220" y="230.35533905932738" width="10" height="10" as="geometry" />
        </mxCell>
        <mxCell id="NoyNG44aX1ynUaIa1Utx-18" value="" style="ellipse;whiteSpace=wrap;html=1;aspect=fixed;fillColor=#0050ef;fontColor=#ffffff;strokeColor=#001DBC;" vertex="1" parent="NoyNG44aX1ynUaIa1Utx-39">
          <mxGeometry x="230" y="240.35533905932738" width="10" height="10" as="geometry" />
        </mxCell>
        <mxCell id="NoyNG44aX1ynUaIa1Utx-19" value="" style="ellipse;whiteSpace=wrap;html=1;aspect=fixed;fillColor=#0050ef;fontColor=#ffffff;strokeColor=#001DBC;" vertex="1" parent="NoyNG44aX1ynUaIa1Utx-39">
          <mxGeometry x="250" y="200.35533905932738" width="10" height="10" as="geometry" />
        </mxCell>
        <mxCell id="NoyNG44aX1ynUaIa1Utx-20" value="" style="ellipse;whiteSpace=wrap;html=1;aspect=fixed;fillColor=#0050ef;fontColor=#ffffff;strokeColor=#001DBC;" vertex="1" parent="NoyNG44aX1ynUaIa1Utx-39">
          <mxGeometry x="160" y="240.35533905932738" width="10" height="10" as="geometry" />
        </mxCell>
        <mxCell id="NoyNG44aX1ynUaIa1Utx-21" value="" style="ellipse;whiteSpace=wrap;html=1;aspect=fixed;fillColor=#0050ef;fontColor=#ffffff;strokeColor=#001DBC;" vertex="1" parent="NoyNG44aX1ynUaIa1Utx-39">
          <mxGeometry x="190" y="220.35533905932738" width="10" height="10" as="geometry" />
        </mxCell>
        <mxCell id="NoyNG44aX1ynUaIa1Utx-22" value="" style="ellipse;whiteSpace=wrap;html=1;aspect=fixed;fillColor=#0050ef;fontColor=#ffffff;strokeColor=#001DBC;" vertex="1" parent="NoyNG44aX1ynUaIa1Utx-39">
          <mxGeometry x="180" y="250.35533905932738" width="10" height="10" as="geometry" />
        </mxCell>
        <mxCell id="NoyNG44aX1ynUaIa1Utx-23" value="" style="ellipse;whiteSpace=wrap;html=1;aspect=fixed;fillColor=#0050ef;fontColor=#ffffff;strokeColor=#001DBC;" vertex="1" parent="NoyNG44aX1ynUaIa1Utx-39">
          <mxGeometry x="240" y="220.35533905932738" width="10" height="10" as="geometry" />
        </mxCell>
        <mxCell id="NoyNG44aX1ynUaIa1Utx-24" value="" style="ellipse;whiteSpace=wrap;html=1;aspect=fixed;fillColor=#0050ef;fontColor=#ffffff;strokeColor=#001DBC;" vertex="1" parent="NoyNG44aX1ynUaIa1Utx-39">
          <mxGeometry x="200" y="250.35533905932738" width="10" height="10" as="geometry" />
        </mxCell>
        <mxCell id="NoyNG44aX1ynUaIa1Utx-26" value="" style="ellipse;whiteSpace=wrap;html=1;aspect=fixed;fillColor=#0050ef;fontColor=#ffffff;strokeColor=#001DBC;" vertex="1" parent="NoyNG44aX1ynUaIa1Utx-39">
          <mxGeometry x="280" y="210.35533905932738" width="10" height="10" as="geometry" />
        </mxCell>
        <mxCell id="NoyNG44aX1ynUaIa1Utx-25" value="" style="ellipse;whiteSpace=wrap;html=1;aspect=fixed;fillColor=#0050ef;fontColor=#ffffff;strokeColor=#001DBC;" vertex="1" parent="NoyNG44aX1ynUaIa1Utx-39">
          <mxGeometry x="220" y="210.35533905932738" width="10" height="10" as="geometry" />
        </mxCell>
        <mxCell id="NoyNG44aX1ynUaIa1Utx-27" value="" style="ellipse;whiteSpace=wrap;html=1;aspect=fixed;fillColor=#0050ef;fontColor=#ffffff;strokeColor=#001DBC;" vertex="1" parent="NoyNG44aX1ynUaIa1Utx-39">
          <mxGeometry x="260" y="240.35533905932738" width="10" height="10" as="geometry" />
        </mxCell>
        <mxCell id="NoyNG44aX1ynUaIa1Utx-28" value="" style="ellipse;whiteSpace=wrap;html=1;aspect=fixed;fillColor=#0050ef;fontColor=#ffffff;strokeColor=#001DBC;" vertex="1" parent="NoyNG44aX1ynUaIa1Utx-39">
          <mxGeometry x="220" y="190.35533905932738" width="10" height="10" as="geometry" />
        </mxCell>
        <mxCell id="NoyNG44aX1ynUaIa1Utx-30" value="" style="endArrow=none;dashed=1;html=1;rounded=0;" edge="1" parent="NoyNG44aX1ynUaIa1Utx-39">
          <mxGeometry width="50" height="50" relative="1" as="geometry">
            <mxPoint x="60" y="230.35533905932738" as="sourcePoint" />
            <mxPoint x="270" y="20.355339059327378" as="targetPoint" />
          </mxGeometry>
        </mxCell>
        <mxCell id="NoyNG44aX1ynUaIa1Utx-34" value="" style="endArrow=classic;startArrow=classic;html=1;rounded=0;" edge="1" parent="NoyNG44aX1ynUaIa1Utx-39">
          <mxGeometry width="50" height="50" relative="1" as="geometry">
            <mxPoint x="250" y="40.35533905932738" as="sourcePoint" />
            <mxPoint x="310" y="90.35533905932738" as="targetPoint" />
          </mxGeometry>
        </mxCell>
        <mxCell id="NoyNG44aX1ynUaIa1Utx-35" value="" style="endArrow=none;html=1;rounded=0;" edge="1" parent="NoyNG44aX1ynUaIa1Utx-39">
          <mxGeometry width="50" height="50" relative="1" as="geometry">
            <mxPoint x="70" y="270.3553390593274" as="sourcePoint" />
            <mxPoint x="280" y="65.35533905932738" as="targetPoint" />
          </mxGeometry>
        </mxCell>
        <mxCell id="NoyNG44aX1ynUaIa1Utx-36" value="&lt;b&gt;wx+b=1&lt;/b&gt;" style="text;html=1;align=center;verticalAlign=middle;resizable=0;points=[];autosize=1;strokeColor=none;fillColor=none;rotation=-45;" vertex="1" parent="NoyNG44aX1ynUaIa1Utx-39">
          <mxGeometry x="200" y="20.355339059327378" width="70" height="30" as="geometry" />
        </mxCell>
        <mxCell id="NoyNG44aX1ynUaIa1Utx-37" value="&lt;b&gt;wx+b=-1&lt;/b&gt;" style="text;html=1;align=center;verticalAlign=middle;resizable=0;points=[];autosize=1;strokeColor=none;fillColor=none;rotation=-45;" vertex="1" parent="NoyNG44aX1ynUaIa1Utx-39">
          <mxGeometry x="274" y="100.35533905932738" width="70" height="30" as="geometry" />
        </mxCell>
        <mxCell id="NoyNG44aX1ynUaIa1Utx-38" value="&lt;b&gt;wx+b=0&lt;/b&gt;" style="text;html=1;align=center;verticalAlign=middle;resizable=0;points=[];autosize=1;strokeColor=none;fillColor=none;rotation=-45;" vertex="1" parent="NoyNG44aX1ynUaIa1Utx-39">
          <mxGeometry x="160" y="120.35533905932738" width="70" height="30" as="geometry" />
        </mxCell>
        <mxCell id="NoyNG44aX1ynUaIa1Utx-40" value="" style="group" vertex="1" connectable="0" parent="1">
          <mxGeometry x="-50" y="380.00466094067264" width="344.3553390593274" height="345.3553390593274" as="geometry" />
        </mxCell>
        <mxCell id="NoyNG44aX1ynUaIa1Utx-42" value="" style="endArrow=classic;html=1;rounded=0;strokeWidth=2;" edge="1" parent="NoyNG44aX1ynUaIa1Utx-40">
          <mxGeometry width="50" height="50" relative="1" as="geometry">
            <mxPoint x="60" y="270.3553390593274" as="sourcePoint" />
            <mxPoint x="60" y="70.35533905932738" as="targetPoint" />
          </mxGeometry>
        </mxCell>
        <mxCell id="NoyNG44aX1ynUaIa1Utx-43" value="" style="endArrow=classic;html=1;rounded=0;strokeWidth=2;" edge="1" parent="NoyNG44aX1ynUaIa1Utx-40">
          <mxGeometry width="50" height="50" relative="1" as="geometry">
            <mxPoint x="60" y="270.3553390593274" as="sourcePoint" />
            <mxPoint x="260" y="270.3553390593274" as="targetPoint" />
          </mxGeometry>
        </mxCell>
        <mxCell id="NoyNG44aX1ynUaIa1Utx-44" value="" style="ellipse;whiteSpace=wrap;html=1;aspect=fixed;fillColor=#e51400;fontColor=#ffffff;strokeColor=#B20000;" vertex="1" parent="NoyNG44aX1ynUaIa1Utx-40">
          <mxGeometry x="90" y="130.35533905932738" width="10" height="10" as="geometry" />
        </mxCell>
        <mxCell id="NoyNG44aX1ynUaIa1Utx-45" value="" style="ellipse;whiteSpace=wrap;html=1;aspect=fixed;fillColor=#e51400;fontColor=#ffffff;strokeColor=#B20000;" vertex="1" parent="NoyNG44aX1ynUaIa1Utx-40">
          <mxGeometry x="100" y="140.35533905932738" width="10" height="10" as="geometry" />
        </mxCell>
        <mxCell id="NoyNG44aX1ynUaIa1Utx-46" value="" style="ellipse;whiteSpace=wrap;html=1;aspect=fixed;fillColor=#e51400;fontColor=#ffffff;strokeColor=#B20000;" vertex="1" parent="NoyNG44aX1ynUaIa1Utx-40">
          <mxGeometry x="80" y="160.35533905932738" width="10" height="10" as="geometry" />
        </mxCell>
        <mxCell id="NoyNG44aX1ynUaIa1Utx-47" value="" style="ellipse;whiteSpace=wrap;html=1;aspect=fixed;fillColor=#e51400;fontColor=#ffffff;strokeColor=#B20000;" vertex="1" parent="NoyNG44aX1ynUaIa1Utx-40">
          <mxGeometry x="100" y="110.35533905932738" width="10" height="10" as="geometry" />
        </mxCell>
        <mxCell id="NoyNG44aX1ynUaIa1Utx-48" value="" style="ellipse;whiteSpace=wrap;html=1;aspect=fixed;fillColor=#e51400;fontColor=#ffffff;strokeColor=#B20000;" vertex="1" parent="NoyNG44aX1ynUaIa1Utx-40">
          <mxGeometry x="120" y="130.35533905932738" width="10" height="10" as="geometry" />
        </mxCell>
        <mxCell id="NoyNG44aX1ynUaIa1Utx-49" value="" style="ellipse;whiteSpace=wrap;html=1;aspect=fixed;fillColor=#e51400;fontColor=#ffffff;strokeColor=#B20000;" vertex="1" parent="NoyNG44aX1ynUaIa1Utx-40">
          <mxGeometry x="120" y="100.35533905932738" width="10" height="10" as="geometry" />
        </mxCell>
        <mxCell id="NoyNG44aX1ynUaIa1Utx-50" value="" style="ellipse;whiteSpace=wrap;html=1;aspect=fixed;fillColor=#e51400;fontColor=#ffffff;strokeColor=#B20000;" vertex="1" parent="NoyNG44aX1ynUaIa1Utx-40">
          <mxGeometry x="150" y="70.35533905932738" width="10" height="10" as="geometry" />
        </mxCell>
        <mxCell id="NoyNG44aX1ynUaIa1Utx-51" value="" style="ellipse;whiteSpace=wrap;html=1;aspect=fixed;fillColor=#e51400;fontColor=#ffffff;strokeColor=#B20000;" vertex="1" parent="NoyNG44aX1ynUaIa1Utx-40">
          <mxGeometry x="170" y="90.35533905932738" width="10" height="10" as="geometry" />
        </mxCell>
        <mxCell id="NoyNG44aX1ynUaIa1Utx-52" value="" style="ellipse;whiteSpace=wrap;html=1;aspect=fixed;fillColor=#e51400;fontColor=#ffffff;strokeColor=#B20000;" vertex="1" parent="NoyNG44aX1ynUaIa1Utx-40">
          <mxGeometry x="140" y="120.35533905932738" width="10" height="10" as="geometry" />
        </mxCell>
        <mxCell id="NoyNG44aX1ynUaIa1Utx-53" value="" style="ellipse;whiteSpace=wrap;html=1;aspect=fixed;fillColor=#e51400;fontColor=#ffffff;strokeColor=#B20000;" vertex="1" parent="NoyNG44aX1ynUaIa1Utx-40">
          <mxGeometry x="110" y="70.35533905932738" width="10" height="10" as="geometry" />
        </mxCell>
        <mxCell id="NoyNG44aX1ynUaIa1Utx-54" value="" style="ellipse;whiteSpace=wrap;html=1;aspect=fixed;fillColor=#e51400;fontColor=#ffffff;strokeColor=#B20000;" vertex="1" parent="NoyNG44aX1ynUaIa1Utx-40">
          <mxGeometry x="160" y="120.35533905932738" width="10" height="10" as="geometry" />
        </mxCell>
        <mxCell id="NoyNG44aX1ynUaIa1Utx-55" value="" style="ellipse;whiteSpace=wrap;html=1;aspect=fixed;fillColor=#0050ef;fontColor=#ffffff;strokeColor=#001DBC;" vertex="1" parent="NoyNG44aX1ynUaIa1Utx-40">
          <mxGeometry x="220" y="230.35533905932738" width="10" height="10" as="geometry" />
        </mxCell>
        <mxCell id="NoyNG44aX1ynUaIa1Utx-56" value="" style="ellipse;whiteSpace=wrap;html=1;aspect=fixed;fillColor=#0050ef;fontColor=#ffffff;strokeColor=#001DBC;" vertex="1" parent="NoyNG44aX1ynUaIa1Utx-40">
          <mxGeometry x="230" y="240.35533905932738" width="10" height="10" as="geometry" />
        </mxCell>
        <mxCell id="NoyNG44aX1ynUaIa1Utx-57" value="" style="ellipse;whiteSpace=wrap;html=1;aspect=fixed;fillColor=#0050ef;fontColor=#ffffff;strokeColor=#001DBC;" vertex="1" parent="NoyNG44aX1ynUaIa1Utx-40">
          <mxGeometry x="250" y="200.35533905932738" width="10" height="10" as="geometry" />
        </mxCell>
        <mxCell id="NoyNG44aX1ynUaIa1Utx-58" value="" style="ellipse;whiteSpace=wrap;html=1;aspect=fixed;fillColor=#0050ef;fontColor=#ffffff;strokeColor=#001DBC;" vertex="1" parent="NoyNG44aX1ynUaIa1Utx-40">
          <mxGeometry x="160" y="240.35533905932738" width="10" height="10" as="geometry" />
        </mxCell>
        <mxCell id="NoyNG44aX1ynUaIa1Utx-59" value="" style="ellipse;whiteSpace=wrap;html=1;aspect=fixed;fillColor=#0050ef;fontColor=#ffffff;strokeColor=#001DBC;" vertex="1" parent="NoyNG44aX1ynUaIa1Utx-40">
          <mxGeometry x="190" y="220.35533905932738" width="10" height="10" as="geometry" />
        </mxCell>
        <mxCell id="NoyNG44aX1ynUaIa1Utx-60" value="" style="ellipse;whiteSpace=wrap;html=1;aspect=fixed;fillColor=#0050ef;fontColor=#ffffff;strokeColor=#001DBC;" vertex="1" parent="NoyNG44aX1ynUaIa1Utx-40">
          <mxGeometry x="180" y="250.35533905932738" width="10" height="10" as="geometry" />
        </mxCell>
        <mxCell id="NoyNG44aX1ynUaIa1Utx-61" value="" style="ellipse;whiteSpace=wrap;html=1;aspect=fixed;fillColor=#0050ef;fontColor=#ffffff;strokeColor=#001DBC;" vertex="1" parent="NoyNG44aX1ynUaIa1Utx-40">
          <mxGeometry x="240" y="220.35533905932738" width="10" height="10" as="geometry" />
        </mxCell>
        <mxCell id="NoyNG44aX1ynUaIa1Utx-62" value="" style="ellipse;whiteSpace=wrap;html=1;aspect=fixed;fillColor=#0050ef;fontColor=#ffffff;strokeColor=#001DBC;" vertex="1" parent="NoyNG44aX1ynUaIa1Utx-40">
          <mxGeometry x="200" y="250.35533905932738" width="10" height="10" as="geometry" />
        </mxCell>
        <mxCell id="NoyNG44aX1ynUaIa1Utx-63" value="" style="ellipse;whiteSpace=wrap;html=1;aspect=fixed;fillColor=#0050ef;fontColor=#ffffff;strokeColor=#001DBC;" vertex="1" parent="NoyNG44aX1ynUaIa1Utx-40">
          <mxGeometry x="280" y="210.35533905932738" width="10" height="10" as="geometry" />
        </mxCell>
        <mxCell id="NoyNG44aX1ynUaIa1Utx-64" value="" style="ellipse;whiteSpace=wrap;html=1;aspect=fixed;fillColor=#0050ef;fontColor=#ffffff;strokeColor=#001DBC;" vertex="1" parent="NoyNG44aX1ynUaIa1Utx-40">
          <mxGeometry x="220" y="210.35533905932738" width="10" height="10" as="geometry" />
        </mxCell>
        <mxCell id="NoyNG44aX1ynUaIa1Utx-65" value="" style="ellipse;whiteSpace=wrap;html=1;aspect=fixed;fillColor=#0050ef;fontColor=#ffffff;strokeColor=#001DBC;" vertex="1" parent="NoyNG44aX1ynUaIa1Utx-40">
          <mxGeometry x="260" y="240.35533905932738" width="10" height="10" as="geometry" />
        </mxCell>
        <mxCell id="NoyNG44aX1ynUaIa1Utx-66" value="" style="ellipse;whiteSpace=wrap;html=1;aspect=fixed;fillColor=#0050ef;fontColor=#ffffff;strokeColor=#001DBC;" vertex="1" parent="NoyNG44aX1ynUaIa1Utx-40">
          <mxGeometry x="220" y="190.35533905932738" width="10" height="10" as="geometry" />
        </mxCell>
        <mxCell id="NoyNG44aX1ynUaIa1Utx-69" value="" style="endArrow=none;html=1;rounded=0;" edge="1" parent="NoyNG44aX1ynUaIa1Utx-40">
          <mxGeometry width="50" height="50" relative="1" as="geometry">
            <mxPoint x="50" y="149.99533905932736" as="sourcePoint" />
            <mxPoint x="310" y="219.99533905932736" as="targetPoint" />
          </mxGeometry>
        </mxCell>
        <mxCell id="NoyNG44aX1ynUaIa1Utx-74" value="&lt;b&gt;Decision boundary&lt;/b&gt;" style="text;html=1;align=center;verticalAlign=middle;resizable=0;points=[];autosize=1;strokeColor=none;fillColor=none;rotation=15;" vertex="1" parent="NoyNG44aX1ynUaIa1Utx-40">
          <mxGeometry x="107.18" y="157.67533905932737" width="130" height="30" as="geometry" />
        </mxCell>
      </root>
    </mxGraphModel>
  </diagram>
</mxfile>
